<svg id="Groupe_1152" data-name="Groupe 1152" xmlns="http://www.w3.org/2000/svg" width="92.653" height="33.088" viewBox="0 0 92.653 33.088">
  <g id="g60" transform="translate(0 0)">
    <path id="path28-0" d="M5699.913,3182.071a76.47,76.47,0,0,1,12.659-6.468,87.975,87.975,0,0,1,27.553-6.045c1.939-.125,8.883-.127,10.842,0a85.842,85.842,0,0,1,35.844,9.934,53.063,53.063,0,0,1,5.041,3.048,9.506,9.506,0,0,1-1.132-.312,132.481,132.481,0,0,0-27.507-5.383,145.232,145.232,0,0,0-15.72-.7,165.587,165.587,0,0,0-20.506.791,132.288,132.288,0,0,0-26.236,5.181c-.814.256-1.512.465-1.548.465a4.513,4.513,0,0,1,.71-.5Z" transform="translate(-5699.2 -3169.463)" fill="#1d1d1f"/>
    <path id="path32-1" d="M5823.933,3283.559a2.263,2.263,0,0,1-.456-.43c-.176-.235-.177-.3-.179-6.505,0-6.763-.01-6.623.449-7.229a2.029,2.029,0,0,1,1.573-.757c1.108-.083.849-.26,5.818,3.946,5.362,4.538,5.45,4.6,6.1,4.33a1.091,1.091,0,0,0,.429-.333,23.681,23.681,0,0,0,.6-3.3c.256-1.7.523-3.289.591-3.526a1.333,1.333,0,0,1,1.369-1.141,1.238,1.238,0,0,1,1.144.686c.161.318.167.525.165,6.349,0,3.311-.037,6.262-.079,6.557a1.772,1.772,0,0,1-.3.83,2.137,2.137,0,0,1-2.159.634c-.512-.122-.884-.433-5.54-4.6-3.426-3.067-4.235-3.755-4.633-3.945a1.208,1.208,0,0,0-1.734.835c-.046.192-.262,1.4-.478,2.688-.752,4.532-.777,4.612-1.409,4.935A1.248,1.248,0,0,1,5823.933,3283.559Z" transform="translate(-5801.036 -3250.824)" fill="#1d1d1f"/>
    <path id="path34-1" d="M5946.01,3282.306a18.571,18.571,0,0,1-3.437-.779,8.243,8.243,0,0,1-4.81-3.837,7.23,7.23,0,0,1-.237-5.538c1.144-2.754,4.246-4.7,8.442-5.285a32.477,32.477,0,0,1,6.677.126c1.974.354,2.815.662,3.105,1.14a1.037,1.037,0,0,1-.442,1.471c-.3.153-.881.144-3.09-.047a22.03,22.03,0,0,0-6.1.287c-2.727.692-4.39,2.114-4.739,4.044-.467,2.6,2.058,4.978,5.868,5.535a13.346,13.346,0,0,0,3.564-.135,7.151,7.151,0,0,0,3.536-1.732c.52-.516.691-.885.561-1.226-.193-.505-.619-.581-4.428-.785-2.664-.142-3.121-.2-3.488-.466a1.217,1.217,0,0,1-.158-1.67c.437-.468.268-.455,5.619-.454,3.369,0,5.068.031,5.3.094a1.987,1.987,0,0,1,1.139,1.138,6.876,6.876,0,0,1,.011,2.177,7.334,7.334,0,0,1-2.167,3.451,11.37,11.37,0,0,1-6.251,2.489,34.068,34.068,0,0,1-4.466,0Z" transform="translate(-5894.412 -3249.298)" fill="#1d1d1f"/>
    <path id="path36-5" d="M6070.63,3303.057a1.515,1.515,0,0,1-.788-1.072,72.629,72.629,0,0,1-.674-8.218l.025-.789.3-.065c.345-.074,3.74-.581,3.892-.581s.133,1.255-.067,4a34.882,34.882,0,0,1-.67,6.021A1.47,1.47,0,0,1,6070.63,3303.057Z" transform="translate(-6002.798 -3270.291)" fill="#1d1d1f"/>
    <path id="path38-4" d="M6068.205,3270.093a7.231,7.231,0,0,1,.173-2.114,2.113,2.113,0,0,1,2.133-1.235,2.084,2.084,0,0,1,2.212,1.481c.182.609.168,1.3-.03,1.4s-3.707.687-4.128.687C6068.309,3270.313,6068.251,3270.279,6068.205,3270.093Z" transform="translate(-6001.987 -3249.292)" fill="#1d1d1f"/>
  </g>
  <path id="path38-1" d="M5714.467,3281.569a18.26,18.26,0,0,1-3.566-.744c-3.381-1.116-5.452-3.17-5.881-5.833a9.917,9.917,0,0,1,.129-2.994c.8-3.014,3.376-5.117,7.255-5.935a21.941,21.941,0,0,1,4.373-.2,9.913,9.913,0,0,1,3.293.612c3.1,1.136,5.011,3.762,4.643,6.37a1.877,1.877,0,0,1-.931,1.576c-.268.146-.325.148-4.349.167-2.242.011-4.448-.007-4.9-.039-.726-.052-.854-.081-1.085-.24a1.009,1.009,0,0,1-.5-.936,1.163,1.163,0,0,1,1.1-1.229c.208-.036,1.463-.114,2.794-.172,3.23-.142,3.589-.2,3.856-.61.521-.791-.654-1.931-2.517-2.443a7.457,7.457,0,0,0-2.291-.151,6.867,6.867,0,0,0-3.269.441,5.143,5.143,0,0,0-2.945,2.5,4.106,4.106,0,0,0-.414,1.9,3.611,3.611,0,0,0,1.117,2.729c1.4,1.43,3.9,2.233,7.255,2.339a20.479,20.479,0,0,0,4.237-.294c1.328-.211,1.862-.2,2.124.045a1.006,1.006,0,0,1,.356.926c-.055.671-.434.979-1.694,1.381a22.481,22.481,0,0,1-8.189.825Z" transform="translate(-5703.926 -3248.554)" fill="#1d1d1f"/>
  <path id="path38-1-2" data-name="path38-1" d="M5714.467,3281.569a18.26,18.26,0,0,1-3.566-.744c-3.381-1.116-5.452-3.17-5.881-5.833a9.917,9.917,0,0,1,.129-2.994c.8-3.014,3.376-5.117,7.255-5.935a21.941,21.941,0,0,1,4.373-.2,9.913,9.913,0,0,1,3.293.612c3.1,1.136,5.011,3.762,4.643,6.37a1.877,1.877,0,0,1-.931,1.576c-.268.146-.325.148-4.349.167-2.242.011-4.448-.007-4.9-.039-.726-.052-.854-.081-1.085-.24a1.009,1.009,0,0,1-.5-.936,1.163,1.163,0,0,1,1.1-1.229c.208-.036,1.463-.114,2.794-.172,3.23-.142,3.589-.2,3.856-.61.521-.791-.654-1.931-2.517-2.443a7.457,7.457,0,0,0-2.291-.151,6.867,6.867,0,0,0-3.269.441,5.143,5.143,0,0,0-2.945,2.5,4.106,4.106,0,0,0-.414,1.9,3.611,3.611,0,0,0,1.117,2.729c1.4,1.43,3.9,2.233,7.255,2.339a20.479,20.479,0,0,0,4.237-.294c1.328-.211,1.862-.2,2.124.045a1.006,1.006,0,0,1,.356.926c-.055.671-.434.979-1.694,1.381a22.481,22.481,0,0,1-8.189.825Z" transform="translate(-5632.107 -3248.554)" fill="#1d1d1f"/>
</svg>
