<svg id="g823-0-2" xmlns="http://www.w3.org/2000/svg" width="101.888" height="16.543" viewBox="0 0 101.888 16.543">
  <path id="path815-9-8" d="M4666.782,3974.838l-5.166,9.162-4.919-9.162-4.458,15.528,4.244.676,1.352-6.488,3.781,6.827,3.937-6.95,1.321,6.488,4.149-.338Zm7.932,5.472-2.8.277v10.394l2.8-.4Zm23.458,10.854a5.6,5.6,0,1,0-5.595-5.595,5.6,5.6,0,0,0,5.595,5.595m-2.828-5.595a2.853,2.853,0,0,1,2.848-2.86h.012a2.856,2.856,0,0,1,2.859,2.847v.013a2.854,2.854,0,0,1-2.849,2.859h-.01a2.875,2.875,0,0,1-2.86-2.859" transform="translate(-4652.239 -3974.838)" fill="#1d1d1f"/>
  <path id="path817-8-9" d="M4812.251,4010.249v2.582c2.338,0,2.338-2.675,0-2.583Zm-2.583,8.271v-10.608h4.243c4.028,0,3.475,5.811,1.354,5.811l2.8,4.028-2.459,1.015-3.353-4.582v4.367h-2.583Zm19.063-.492,3.012-10.394,3.261,6.12,3.443-6.12,2.859,10.547-2.768.216-.891-4.337L4835,4018.7l-2.521-4.582-.892,4.336Zm43.964-3.72h1.568l-.892-1.691Zm.739-6.641,5.872,10.33-2.675.493-1.446-1.968H4871.5l-.891,2-2.953-.492Zm-26.747,6.7h1.566l-.892-1.69-.674,1.691Zm.767-6.7,5.81,10.393-2.581.616-1.568-2.121-3.69.061-.892,2-2.921-.555,5.843-10.391Zm15.865.153v11.07l-6.825-5.812v5.382h-2.8V4007.6h.337l6.486,5.534v-5.32Zm.953.248,2.921-.247v10.64l-2.921.215Zm-55.955,10.424a4.847,4.847,0,0,1-1.875.338,5.6,5.6,0,0,1,0-11.193,5.063,5.063,0,0,1,1.938.339l.306,3.536a2.881,2.881,0,0,0-2.244-1.138,2.851,2.851,0,0,0-2.859,2.847v.012a2.852,2.852,0,0,0,2.847,2.86h.012a2.844,2.844,0,0,0,2.367-1.261Z" transform="translate(-4777.417 -4002.438)" fill="#1d1d1f"/>
</svg>
