<svg id="Groupe_1154" data-name="Groupe 1154" xmlns="http://www.w3.org/2000/svg" width="50.284" height="52.328" viewBox="0 0 50.284 52.328">
  <path id="Tracé_298" data-name="Tracé 298" d="M4094.41,2388.577l4.045,2.074c-.179-1.3-.349-2.536-.526-3.831Zm10.926,29.673-2.438.219v.849h1.615c.927,0,.927,0,.86-.935A.817.817,0,0,0,4105.336,2418.25Z" transform="translate(-4056.295 -2374.293)" fill="#1d1d1f"/>
  <path id="Tracé_299" data-name="Tracé 299" d="M3895.19,2289.476c.548.091,1.1.146,1.642.277,4.292,1.053,7.232,3.593,8.219,7.971a9.793,9.793,0,0,1-3.569,10.177c-.351.3-.73.564-1.1.842a1.662,1.662,0,0,1-.163.1c-.462-.488-.916-.968-1.37-1.446.437-.4.936-.84,1.407-1.305a8.666,8.666,0,0,0,2.467-3.929,8.464,8.464,0,0,0-6.078-10.331,9.188,9.188,0,0,0-10.668,5,7.867,7.867,0,0,0,.08,6.4,15.267,15.267,0,0,0,3.181,4.726c2.45,2.585,4.943,5.13,7.421,7.689.813.84,1.632,1.673,2.471,2.531l-1.3,1.936c-.479-.47-.954-.918-1.41-1.385-3.3-3.378-6.631-6.725-9.876-10.154a11.879,11.879,0,0,1-3.5-7.39,10.307,10.307,0,0,1,5.519-10.26,10.889,10.889,0,0,1,4.706-1.4,2.872,2.872,0,0,0,.312-.061Z" transform="translate(-3872.095 -2289.467)" fill="#1d1d1f"/>
  <path id="Tracé_300" data-name="Tracé 300" d="M3920.56,2642.008c0-.1-.009-.2-.014-.3h-1.386c-.013.12-.024.22-.04.362a1.948,1.948,0,0,0-2.037-.417,2.619,2.619,0,0,0-1.124,4.1c.719.883,2.357,1.2,3.1.288.009-.009.04,0,.065,0a1.242,1.242,0,0,1,.009.127,1.063,1.063,0,0,1-.692,1.09,1.007,1.007,0,0,1-1.272-.3.235.235,0,0,0-.158-.077c-.5-.005-1,0-1.526,0a1.845,1.845,0,0,0,1.105,1.4,7.354,7.354,0,0,0,.82.266h.965a.711.711,0,0,1,.141-.062,2.2,2.2,0,0,0,2.045-2.471c0-.022,0-.043,0-.064Q3920.561,2643.987,3920.56,2642.008Zm-2.576,3.268a1.205,1.205,0,1,1,1.155-1.169A1.161,1.161,0,0,1,3917.984,2645.277Z" transform="translate(-3900.304 -2596.235)" fill="#1d1d1f"/>
  <path id="Tracé_301" data-name="Tracé 301" d="M3860.065,2438.926c-.251.2-.429.33-.6.468a17.459,17.459,0,0,0-4.011,4.23,8.3,8.3,0,0,0-.59,7.944,10.126,10.126,0,0,0,7.358,6.32,13.538,13.538,0,0,0,6.811.145,11.783,11.783,0,0,0,6.352-4.2,56.849,56.849,0,0,0,4.024-5.973c2-3.251,3.759-6.641,5.473-10.051a1.255,1.255,0,0,1,1.247-.835,1.163,1.163,0,0,1,1.048,1.51,1.434,1.434,0,0,1-.107.267c-1.7,3.068-3.323,6.177-5.109,9.19-1.4,2.36-2.939,4.641-4.514,6.887a12.777,12.777,0,0,1-8.245,5.563,16.028,16.028,0,0,1-13.02-2.714,11.045,11.045,0,0,1-4.543-7.815,11.447,11.447,0,0,1,3.4-9.761,19.074,19.074,0,0,1,3.191-2.595c.162-.108.257-.115.4.034C3859.087,2438,3859.566,2438.448,3860.065,2438.926Z" transform="translate(-3844.676 -2417.99)" fill="#1d1d1f"/>
  <path id="Tracé_302" data-name="Tracé 302" d="M3884.344,2429.595l1.5,1.464-.592.453a11.939,11.939,0,0,0-2.335,2.337,6.366,6.366,0,0,0,.378,8.426,8.372,8.372,0,0,0,6.975,2.784,8.641,8.641,0,0,0,6.112-3.147,23.894,23.894,0,0,0,3.2-4.5c2.078-3.724,4.126-7.466,6.18-11.2a1.274,1.274,0,0,1,1.177-.8,1.171,1.171,0,0,1,1.077,1.588,2.313,2.313,0,0,1-.12.262,144.29,144.29,0,0,1-7.189,12.7,26.789,26.789,0,0,1-3.169,4.209,10.451,10.451,0,0,1-8.046,3.239,12.549,12.549,0,0,1-6.014-1.535,9.139,9.139,0,0,1-4.649-7.2,7.041,7.041,0,0,1,1.43-5.105,17.987,17.987,0,0,1,4.033-3.943A.176.176,0,0,1,3884.344,2429.595Z" transform="translate(-3868.403 -2407.914)" fill="#1d1d1f"/>
  <path id="Tracé_303" data-name="Tracé 303" d="M3920.118,2326.883l-1.394-1.483a3.009,3.009,0,0,0,.231-.206c.606-.62,1.254-1.205,1.807-1.87a5.484,5.484,0,0,0-1.345-7.971c-2.9-1.97-7.842-.608-8.675,3.405a6.524,6.524,0,0,0,1.682,5.993c2.327,2.51,4.726,4.953,7.1,7.413,1.021,1.057,2.07,2.087,3.106,3.132.066.068.129.139.207.225-.4.637-.806,1.267-1.219,1.918a1.366,1.366,0,0,1-.134-.1c-3.239-3.331-6.492-6.649-9.707-10a14.763,14.763,0,0,1-2.859-4.175c-2-4.449.345-8.261,3.826-9.895a7.97,7.97,0,0,1,10.059,2.689,7.224,7.224,0,0,1-.659,8.922C3921.505,2325.562,3920.811,2326.2,3920.118,2326.883Z" transform="translate(-3894.035 -2309.522)" fill="#1d1d1f"/>
  <path id="Tracé_304" data-name="Tracé 304" d="M3911.086,2421.548l1.513,1.482c-.4.332-.809.644-1.187.992a4.79,4.79,0,0,0-1.575,2.631,3.86,3.86,0,0,0,2.455,4.447,5.457,5.457,0,0,0,6.606-1.867,77.477,77.477,0,0,0,5.226-8.216c1.148-2.181,2.253-4.382,3.377-6.576a1.215,1.215,0,0,1,1.2-.759,1.168,1.168,0,0,1,1.065,1.5,1.493,1.493,0,0,1-.111.268c-2.267,4.085-4.51,8.184-6.814,12.247a16.792,16.792,0,0,1-3.976,4.77,6.838,6.838,0,0,1-4.071,1.469,7.326,7.326,0,0,1-6.338-2.649,5.431,5.431,0,0,1-.287-6.971A11.218,11.218,0,0,1,3911.086,2421.548Z" transform="translate(-3893.034 -2397.698)" fill="#1d1d1f"/>
  <path id="Tracé_305" data-name="Tracé 305" d="M3947.229,2351.753c-.464.815-.9,1.576-1.375,2.421-.419-.447-.795-.858-1.183-1.258q-4.375-4.524-8.753-9.046a6.205,6.205,0,0,1-1.854-4.421,4.46,4.46,0,0,1,3.029-4.367,4.734,4.734,0,0,1,5.568,1.55,4.6,4.6,0,0,1,.354,4.915,9.367,9.367,0,0,1-2.444,2.631c-.466-.5-.935-1-1.4-1.488.292-.264.662-.561.986-.9a3.244,3.244,0,0,0,.876-3.284,2.189,2.189,0,0,0-2.388-1.593,2.275,2.275,0,0,0-2.068,1.971,3.432,3.432,0,0,0,.578,2.451,13.221,13.221,0,0,0,1.518,1.906c2.722,2.758,5.473,5.485,8.216,8.22C3946.991,2351.56,3947.1,2351.645,3947.229,2351.753Z" transform="translate(-3916.581 -2328.922)" fill="#1d1d1f"/>
  <path id="Tracé_306" data-name="Tracé 306" d="M4064.9,2529.889a16.546,16.546,0,0,0-6.3,6.261c-.072-.064-.143-.126-.21-.192-1.239-1.249-2.474-2.5-3.723-3.743a.327.327,0,0,1-.042-.509c.377-.534.73-1.085,1.106-1.649.087.079.163.145.233.216q1.308,1.311,2.613,2.623c.061.06.12.123.185.18a.456.456,0,0,0,.659.018.437.437,0,0,0-.034-.657q-1.095-1.114-2.2-2.216c-.3-.3-.62-.592-.941-.9.472-.708.916-1.374,1.371-2.062.1.094.177.162.25.238q1.528,1.565,3.057,3.133c.089.091.183.229.289.242a.7.7,0,0,0,.512-.082c.1-.1.09-.341.078-.516-.006-.084-.128-.164-.2-.24l-3.454-3.545c.438-.705.869-1.4,1.318-2.128Z" transform="translate(-4021.536 -2494.137)" fill="#1d1d1f"/>
  <path id="Tracé_307" data-name="Tracé 307" d="M4046.708,2633.22l-.867-.853a2.724,2.724,0,0,1-3.362.563,1.821,1.821,0,0,1-.418-3.019c.215-.2.461-.376.715-.579a2.051,2.051,0,0,1-.658-1.831,1.626,1.626,0,0,1,.637-1.045,1.975,1.975,0,0,1,2.63.2c.674.791.494,1.628-.577,2.675l.909.84c.114-.239.266-.537.4-.845a.329.329,0,0,1,.362-.236c.4.015.793,0,1.261,0l-1.14,2.147,1.1.953Zm-3.09-2.99c-.326.25-.644.523-.57,1.013a.751.751,0,0,0,.69.616.974.974,0,0,0,1.09-.428Zm.279-1.64.133.008a6.1,6.1,0,0,0,.418-.757.428.428,0,0,0-.211-.575.6.6,0,0,0-.524.029.742.742,0,0,0-.188.582A2.777,2.777,0,0,0,4043.9,2628.59Z" transform="translate(-4010.138 -2582.74)" fill="#1d1d1f"/>
  <path id="Tracé_308" data-name="Tracé 308" d="M3801.366,2634.778l1.7,2.125c-.633,0-1.2.008-1.758-.01-.087,0-.186-.126-.251-.214-.424-.578-.841-1.162-1.325-1.731v1.94h-1.538v-6.267c.013-.01.03-.034.045-.034,1.008.017,2.02-.024,3.02.073a1.918,1.918,0,0,1,1.67,1.947,1.95,1.95,0,0,1-1.454,2.114A.788.788,0,0,0,3801.366,2634.778Zm-1.635-.993a8.2,8.2,0,0,0,1.084-.118.783.783,0,0,0,.559-.842.729.729,0,0,0-.576-.757,8.4,8.4,0,0,0-1.067-.1Z" transform="translate(-3798.19 -2586.695)" fill="#1d1d1f"/>
  <path id="Tracé_309" data-name="Tracé 309" d="M4099.2,2634.806v1.985h-1.542v-6.277a1.153,1.153,0,0,1,.182-.03c.729,0,1.459,0,2.188.018a2.065,2.065,0,0,1,1.994,2.69,1.975,1.975,0,0,1-1.91,1.611C4099.82,2634.823,4099.533,2634.806,4099.2,2634.806Zm.012-1.405c.467-.007.94.1,1.218-.355a.708.708,0,0,0-.039-.846c-.316-.385-.756-.29-1.18-.292Z" transform="translate(-4059.121 -2586.606)" fill="#1d1d1f"/>
  <path id="Tracé_310" data-name="Tracé 310" d="M4151.367,2644.459a.888.888,0,0,0,.657.763,1.018,1.018,0,0,0,1.113-.178.661.661,0,0,1,.542-.193c.343.007.685,0,1.054,0a1.166,1.166,0,0,1-.049.19,2.476,2.476,0,0,1-2.8,1.381,2.527,2.527,0,0,1-1.96-2.472,2.558,2.558,0,0,1,2-2.475,2.522,2.522,0,0,1,3,2.77c-.028.228-.159.21-.311.21q-1.45,0-2.9,0Zm2.1-1.1a.991.991,0,0,0-1.065-.743.952.952,0,0,0-.982.743Z" transform="translate(-4104.665 -2596.133)" fill="#1d1d1f"/>
  <path id="Tracé_311" data-name="Tracé 311" d="M3980.443,2644.485h-3.608a3.344,3.344,0,0,0,.441.593,1.135,1.135,0,0,0,1.519-.081.641.641,0,0,1,.213-.113.509.509,0,0,1,.161,0h1.125a2.434,2.434,0,0,1-2.822,1.581,2.533,2.533,0,1,1,2.973-1.978Zm-1.407-1.093a1.011,1.011,0,0,0-1.078-.742.955.955,0,0,0-.985.742Z" transform="translate(-3952.676 -2596.159)" fill="#1d1d1f"/>
  <path id="Tracé_312" data-name="Tracé 312" d="M3837.643,2646.64a2.52,2.52,0,1,1,2.568-2.512A2.477,2.477,0,0,1,3837.643,2646.64Zm.01-1.322a1.2,1.2,0,1,0-1.16-1.176A1.187,1.187,0,0,0,3837.652,2645.319Z" transform="translate(-3830.326 -2596.29)" fill="#1d1d1f"/>
  <path id="Tracé_313" data-name="Tracé 313" d="M3882.52,2647.409h-1.289c-.008-.134-.017-.257-.029-.445a1.7,1.7,0,0,1-1.795.58,1.394,1.394,0,0,1-1.231-1.337c-.075-1.161-.019-2.328-.019-3.512h1.378v.344c0,.814-.011,1.629.012,2.443a.737.737,0,0,0,1.06.73.691.691,0,0,0,.491-.714c.015-.814.029-1.63.01-2.443-.008-.317.092-.41.4-.385.327.026.66.006,1.015.006Z" transform="translate(-3867.85 -2597.218)" fill="#1d1d1f"/>
  <path id="Tracé_314" data-name="Tracé 314" d="M4137.031,2633.109h-1.383v-6.857h1.383Z" transform="translate(-4092.227 -2582.918)" fill="#1d1d1f"/>
  <path id="Tracé_315" data-name="Tracé 315" d="M4019.591,2646.49h-1.4v-4.727h1.278l.043.434a1.263,1.263,0,0,1,1.174-.582V2643c-.1.009-.2.013-.288.025a.794.794,0,0,0-.8.894c-.012.729,0,1.458-.005,2.187Z" transform="translate(-3989.886 -2596.298)" fill="#1d1d1f"/>
  <path id="Tracé_316" data-name="Tracé 316" d="M4094.41,2388.577l3.52-1.757c.177,1.295.347,2.531.526,3.831Z" transform="translate(-4056.295 -2374.293)" fill="#1d1d1f"/>
  <path id="Tracé_317" data-name="Tracé 317" d="M3961.1,2642.851h1.38v4.718h-1.38Z" transform="translate(-3940.135 -2597.38)" fill="#1d1d1f"/>
  <path id="Tracé_318" data-name="Tracé 318" d="M4105.109,2584.234a2.5,2.5,0,0,1-.146.345,6.433,6.433,0,0,1-2.389,2.333.386.386,0,1,1-.5-.522,6.447,6.447,0,0,1,2.361-2.314,1.349,1.349,0,0,1,.424-.144C4105.048,2583.9,4105.14,2584,4105.109,2584.234Z" transform="translate(-4062.866 -2546.037)" fill="#1d1d1f"/>
  <path id="Tracé_319" data-name="Tracé 319" d="M3961.372,2630.975c0,.3.009.578-.014.854a.268.268,0,0,1-.191.177,8.22,8.22,0,0,1-1-.007.293.293,0,0,1-.2-.2c-.024-.265-.007-.534,0-.828Z" transform="translate(-3939.146 -2587.025)" fill="#1d1d1f"/>
</svg>
